<svg width="512" height="512" viewBox="-40 -40 592 592" version="1.1" xmlns="http://www.w3.org/2000/svg">
<path fill="#ffc" d="M100.704 270.59l33.977-17.877 34.04 17.877-6.485-37.879 27.514-26.805-38.049-5.577-17.02-34.467-16.958 34.467-38.048 5.577 27.494 26.805zM157.208 82.033l26.616-13.996 26.656 13.996-5.088-29.669 21.568-20.989-29.808-4.38L183.824 0l-13.288 26.995-29.789 4.38 21.528 20.989zM21.733 120.54l21.629-11.372 21.647 11.372-4.13-24.101 17.518-17.06-24.221-3.551L43.362 53.89 32.547 75.828 8.345 79.379l17.498 17.06z"/>
<path fill="#ffc" d="M330.87 24.092c16.401 32.034 25.918 68.267 25.918 106.734 0 129.389-104.848 234.277-234.237 234.277-38.507 0-74.74-9.478-106.802-25.957C48.329 439.414 142.423 512 253.556 512c138.108 0 250.099-111.991 250.099-250.1 0-111.122-72.526-205.246-172.785-237.808z"/>
</svg>
